<?xml version="1.0" encoding="utf-8" standalone="no"?>
<!DOCTYPE svg PUBLIC "-//W3C//DTD SVG 1.1//EN"
  "http://www.w3.org/Graphics/SVG/1.1/DTD/svg11.dtd">
<svg xmlns:xlink="http://www.w3.org/1999/xlink" width="864pt" height="432pt" viewBox="0 0 864 432" xmlns="http://www.w3.org/2000/svg" version="1.1">
 <metadata>
  <rdf:RDF xmlns:dc="http://purl.org/dc/elements/1.1/" xmlns:cc="http://creativecommons.org/ns#" xmlns:rdf="http://www.w3.org/1999/02/22-rdf-syntax-ns#">
   <cc:Work>
    <dc:type rdf:resource="http://purl.org/dc/dcmitype/StillImage"/>
    <dc:date>2023-06-17T01:56:35.190584</dc:date>
    <dc:format>image/svg+xml</dc:format>
    <dc:creator>
     <cc:Agent>
      <dc:title>Matplotlib v3.7.1, https://matplotlib.org/</dc:title>
     </cc:Agent>
    </dc:creator>
   </cc:Work>
  </rdf:RDF>
 </metadata>
 <defs>
  <style type="text/css">*{stroke-linejoin: round; stroke-linecap: butt}</style>
 </defs>
 <g id="figure_1">
  <g id="patch_1">
   <path d="M 0 432 
L 864 432 
L 864 0 
L 0 0 
z
" style="fill: #ffffff"/>
  </g>
  <g id="axes_1">
   <g id="patch_2">
    <path d="M 108 203.04 
L 777.6 203.04 
L 777.6 51.84 
L 108 51.84 
z
" style="fill: #ffffff"/>
   </g>
   <g id="matplotlib.axis_1">
    <g id="xtick_1">
     <g id="line2d_1">
      <defs>
       <path id="mc366a27018" d="M 0 0 
L 0 3.5 
" style="stroke: #000000; stroke-width: 0.8"/>
      </defs>
      <g>
       <use xlink:href="#mc366a27018" x="138.436364" y="203.04" style="stroke: #000000; stroke-width: 0.8"/>
      </g>
     </g>
     <g id="text_1">
      <!-- 0.0 -->
      <g transform="translate(130.484801 217.638437) scale(0.1 -0.1)">
       <defs>
        <path id="DejaVuSans-30" d="M 2034 4250 
Q 1547 4250 1301 3770 
Q 1056 3291 1056 2328 
Q 1056 1369 1301 889 
Q 1547 409 2034 409 
Q 2525 409 2770 889 
Q 3016 1369 3016 2328 
Q 3016 3291 2770 3770 
Q 2525 4250 2034 4250 
z
M 2034 4750 
Q 2819 4750 3233 4129 
Q 3647 3509 3647 2328 
Q 3647 1150 3233 529 
Q 2819 -91 2034 -91 
Q 1250 -91 836 529 
Q 422 1150 422 2328 
Q 422 3509 836 4129 
Q 1250 4750 2034 4750 
z
" transform="scale(0.015625)"/>
        <path id="DejaVuSans-2e" d="M 684 794 
L 1344 794 
L 1344 0 
L 684 0 
L 684 794 
z
" transform="scale(0.015625)"/>
       </defs>
       <use xlink:href="#DejaVuSans-30"/>
       <use xlink:href="#DejaVuSans-2e" x="63.623047"/>
       <use xlink:href="#DejaVuSans-30" x="95.410156"/>
      </g>
     </g>
    </g>
    <g id="xtick_2">
     <g id="line2d_2">
      <g>
       <use xlink:href="#mc366a27018" x="235.068943" y="203.04" style="stroke: #000000; stroke-width: 0.8"/>
      </g>
     </g>
     <g id="text_2">
      <!-- 0.5 -->
      <g transform="translate(227.117381 217.638437) scale(0.1 -0.1)">
       <defs>
        <path id="DejaVuSans-35" d="M 691 4666 
L 3169 4666 
L 3169 4134 
L 1269 4134 
L 1269 2991 
Q 1406 3038 1543 3061 
Q 1681 3084 1819 3084 
Q 2600 3084 3056 2656 
Q 3513 2228 3513 1497 
Q 3513 744 3044 326 
Q 2575 -91 1722 -91 
Q 1428 -91 1123 -41 
Q 819 9 494 109 
L 494 744 
Q 775 591 1075 516 
Q 1375 441 1709 441 
Q 2250 441 2565 725 
Q 2881 1009 2881 1497 
Q 2881 1984 2565 2268 
Q 2250 2553 1709 2553 
Q 1456 2553 1204 2497 
Q 953 2441 691 2322 
L 691 4666 
z
" transform="scale(0.015625)"/>
       </defs>
       <use xlink:href="#DejaVuSans-30"/>
       <use xlink:href="#DejaVuSans-2e" x="63.623047"/>
       <use xlink:href="#DejaVuSans-35" x="95.410156"/>
      </g>
     </g>
    </g>
    <g id="xtick_3">
     <g id="line2d_3">
      <g>
       <use xlink:href="#mc366a27018" x="331.701523" y="203.04" style="stroke: #000000; stroke-width: 0.8"/>
      </g>
     </g>
     <g id="text_3">
      <!-- 1.0 -->
      <g transform="translate(323.749961 217.638437) scale(0.1 -0.1)">
       <defs>
        <path id="DejaVuSans-31" d="M 794 531 
L 1825 531 
L 1825 4091 
L 703 3866 
L 703 4441 
L 1819 4666 
L 2450 4666 
L 2450 531 
L 3481 531 
L 3481 0 
L 794 0 
L 794 531 
z
" transform="scale(0.015625)"/>
       </defs>
       <use xlink:href="#DejaVuSans-31"/>
       <use xlink:href="#DejaVuSans-2e" x="63.623047"/>
       <use xlink:href="#DejaVuSans-30" x="95.410156"/>
      </g>
     </g>
    </g>
    <g id="xtick_4">
     <g id="line2d_4">
      <g>
       <use xlink:href="#mc366a27018" x="428.334103" y="203.04" style="stroke: #000000; stroke-width: 0.8"/>
      </g>
     </g>
     <g id="text_4">
      <!-- 1.5 -->
      <g transform="translate(420.38254 217.638437) scale(0.1 -0.1)">
       <use xlink:href="#DejaVuSans-31"/>
       <use xlink:href="#DejaVuSans-2e" x="63.623047"/>
       <use xlink:href="#DejaVuSans-35" x="95.410156"/>
      </g>
     </g>
    </g>
    <g id="xtick_5">
     <g id="line2d_5">
      <g>
       <use xlink:href="#mc366a27018" x="524.966683" y="203.04" style="stroke: #000000; stroke-width: 0.8"/>
      </g>
     </g>
     <g id="text_5">
      <!-- 2.0 -->
      <g transform="translate(517.01512 217.638437) scale(0.1 -0.1)">
       <defs>
        <path id="DejaVuSans-32" d="M 1228 531 
L 3431 531 
L 3431 0 
L 469 0 
L 469 531 
Q 828 903 1448 1529 
Q 2069 2156 2228 2338 
Q 2531 2678 2651 2914 
Q 2772 3150 2772 3378 
Q 2772 3750 2511 3984 
Q 2250 4219 1831 4219 
Q 1534 4219 1204 4116 
Q 875 4013 500 3803 
L 500 4441 
Q 881 4594 1212 4672 
Q 1544 4750 1819 4750 
Q 2544 4750 2975 4387 
Q 3406 4025 3406 3419 
Q 3406 3131 3298 2873 
Q 3191 2616 2906 2266 
Q 2828 2175 2409 1742 
Q 1991 1309 1228 531 
z
" transform="scale(0.015625)"/>
       </defs>
       <use xlink:href="#DejaVuSans-32"/>
       <use xlink:href="#DejaVuSans-2e" x="63.623047"/>
       <use xlink:href="#DejaVuSans-30" x="95.410156"/>
      </g>
     </g>
    </g>
    <g id="xtick_6">
     <g id="line2d_6">
      <g>
       <use xlink:href="#mc366a27018" x="621.599262" y="203.04" style="stroke: #000000; stroke-width: 0.8"/>
      </g>
     </g>
     <g id="text_6">
      <!-- 2.5 -->
      <g transform="translate(613.6477 217.638437) scale(0.1 -0.1)">
       <use xlink:href="#DejaVuSans-32"/>
       <use xlink:href="#DejaVuSans-2e" x="63.623047"/>
       <use xlink:href="#DejaVuSans-35" x="95.410156"/>
      </g>
     </g>
    </g>
    <g id="xtick_7">
     <g id="line2d_7">
      <g>
       <use xlink:href="#mc366a27018" x="718.231842" y="203.04" style="stroke: #000000; stroke-width: 0.8"/>
      </g>
     </g>
     <g id="text_7">
      <!-- 3.0 -->
      <g transform="translate(710.280279 217.638437) scale(0.1 -0.1)">
       <defs>
        <path id="DejaVuSans-33" d="M 2597 2516 
Q 3050 2419 3304 2112 
Q 3559 1806 3559 1356 
Q 3559 666 3084 287 
Q 2609 -91 1734 -91 
Q 1441 -91 1130 -33 
Q 819 25 488 141 
L 488 750 
Q 750 597 1062 519 
Q 1375 441 1716 441 
Q 2309 441 2620 675 
Q 2931 909 2931 1356 
Q 2931 1769 2642 2001 
Q 2353 2234 1838 2234 
L 1294 2234 
L 1294 2753 
L 1863 2753 
Q 2328 2753 2575 2939 
Q 2822 3125 2822 3475 
Q 2822 3834 2567 4026 
Q 2313 4219 1838 4219 
Q 1578 4219 1281 4162 
Q 984 4106 628 3988 
L 628 4550 
Q 988 4650 1302 4700 
Q 1616 4750 1894 4750 
Q 2613 4750 3031 4423 
Q 3450 4097 3450 3541 
Q 3450 3153 3228 2886 
Q 3006 2619 2597 2516 
z
" transform="scale(0.015625)"/>
       </defs>
       <use xlink:href="#DejaVuSans-33"/>
       <use xlink:href="#DejaVuSans-2e" x="63.623047"/>
       <use xlink:href="#DejaVuSans-30" x="95.410156"/>
      </g>
     </g>
    </g>
    <g id="text_8">
     <!-- Time (s) -->
     <g transform="translate(422.471094 231.316562) scale(0.1 -0.1)">
      <defs>
       <path id="DejaVuSans-54" d="M -19 4666 
L 3928 4666 
L 3928 4134 
L 2272 4134 
L 2272 0 
L 1638 0 
L 1638 4134 
L -19 4134 
L -19 4666 
z
" transform="scale(0.015625)"/>
       <path id="DejaVuSans-69" d="M 603 3500 
L 1178 3500 
L 1178 0 
L 603 0 
L 603 3500 
z
M 603 4863 
L 1178 4863 
L 1178 4134 
L 603 4134 
L 603 4863 
z
" transform="scale(0.015625)"/>
       <path id="DejaVuSans-6d" d="M 3328 2828 
Q 3544 3216 3844 3400 
Q 4144 3584 4550 3584 
Q 5097 3584 5394 3201 
Q 5691 2819 5691 2113 
L 5691 0 
L 5113 0 
L 5113 2094 
Q 5113 2597 4934 2840 
Q 4756 3084 4391 3084 
Q 3944 3084 3684 2787 
Q 3425 2491 3425 1978 
L 3425 0 
L 2847 0 
L 2847 2094 
Q 2847 2600 2669 2842 
Q 2491 3084 2119 3084 
Q 1678 3084 1418 2786 
Q 1159 2488 1159 1978 
L 1159 0 
L 581 0 
L 581 3500 
L 1159 3500 
L 1159 2956 
Q 1356 3278 1631 3431 
Q 1906 3584 2284 3584 
Q 2666 3584 2933 3390 
Q 3200 3197 3328 2828 
z
" transform="scale(0.015625)"/>
       <path id="DejaVuSans-65" d="M 3597 1894 
L 3597 1613 
L 953 1613 
Q 991 1019 1311 708 
Q 1631 397 2203 397 
Q 2534 397 2845 478 
Q 3156 559 3463 722 
L 3463 178 
Q 3153 47 2828 -22 
Q 2503 -91 2169 -91 
Q 1331 -91 842 396 
Q 353 884 353 1716 
Q 353 2575 817 3079 
Q 1281 3584 2069 3584 
Q 2775 3584 3186 3129 
Q 3597 2675 3597 1894 
z
M 3022 2063 
Q 3016 2534 2758 2815 
Q 2500 3097 2075 3097 
Q 1594 3097 1305 2825 
Q 1016 2553 972 2059 
L 3022 2063 
z
" transform="scale(0.015625)"/>
       <path id="DejaVuSans-20" transform="scale(0.015625)"/>
       <path id="DejaVuSans-28" d="M 1984 4856 
Q 1566 4138 1362 3434 
Q 1159 2731 1159 2009 
Q 1159 1288 1364 580 
Q 1569 -128 1984 -844 
L 1484 -844 
Q 1016 -109 783 600 
Q 550 1309 550 2009 
Q 550 2706 781 3412 
Q 1013 4119 1484 4856 
L 1984 4856 
z
" transform="scale(0.015625)"/>
       <path id="DejaVuSans-73" d="M 2834 3397 
L 2834 2853 
Q 2591 2978 2328 3040 
Q 2066 3103 1784 3103 
Q 1356 3103 1142 2972 
Q 928 2841 928 2578 
Q 928 2378 1081 2264 
Q 1234 2150 1697 2047 
L 1894 2003 
Q 2506 1872 2764 1633 
Q 3022 1394 3022 966 
Q 3022 478 2636 193 
Q 2250 -91 1575 -91 
Q 1294 -91 989 -36 
Q 684 19 347 128 
L 347 722 
Q 666 556 975 473 
Q 1284 391 1588 391 
Q 1994 391 2212 530 
Q 2431 669 2431 922 
Q 2431 1156 2273 1281 
Q 2116 1406 1581 1522 
L 1381 1569 
Q 847 1681 609 1914 
Q 372 2147 372 2553 
Q 372 3047 722 3315 
Q 1072 3584 1716 3584 
Q 2034 3584 2315 3537 
Q 2597 3491 2834 3397 
z
" transform="scale(0.015625)"/>
       <path id="DejaVuSans-29" d="M 513 4856 
L 1013 4856 
Q 1481 4119 1714 3412 
Q 1947 2706 1947 2009 
Q 1947 1309 1714 600 
Q 1481 -109 1013 -844 
L 513 -844 
Q 928 -128 1133 580 
Q 1338 1288 1338 2009 
Q 1338 2731 1133 3434 
Q 928 4138 513 4856 
z
" transform="scale(0.015625)"/>
      </defs>
      <use xlink:href="#DejaVuSans-54"/>
      <use xlink:href="#DejaVuSans-69" x="57.958984"/>
      <use xlink:href="#DejaVuSans-6d" x="85.742188"/>
      <use xlink:href="#DejaVuSans-65" x="183.154297"/>
      <use xlink:href="#DejaVuSans-20" x="244.677734"/>
      <use xlink:href="#DejaVuSans-28" x="276.464844"/>
      <use xlink:href="#DejaVuSans-73" x="315.478516"/>
      <use xlink:href="#DejaVuSans-29" x="367.578125"/>
     </g>
    </g>
   </g>
   <g id="matplotlib.axis_2">
    <g id="ytick_1">
     <g id="line2d_8">
      <defs>
       <path id="m763a871984" d="M 0 0 
L -3.5 0 
" style="stroke: #000000; stroke-width: 0.8"/>
      </defs>
      <g>
       <use xlink:href="#m763a871984" x="108" y="190.199713" style="stroke: #000000; stroke-width: 0.8"/>
      </g>
     </g>
     <g id="text_9">
      <!-- 200 -->
      <g transform="translate(81.9125 193.998932) scale(0.1 -0.1)">
       <use xlink:href="#DejaVuSans-32"/>
       <use xlink:href="#DejaVuSans-30" x="63.623047"/>
       <use xlink:href="#DejaVuSans-30" x="127.246094"/>
      </g>
     </g>
    </g>
    <g id="ytick_2">
     <g id="line2d_9">
      <g>
       <use xlink:href="#m763a871984" x="108" y="163.40585" style="stroke: #000000; stroke-width: 0.8"/>
      </g>
     </g>
     <g id="text_10">
      <!-- 400 -->
      <g transform="translate(81.9125 167.205069) scale(0.1 -0.1)">
       <defs>
        <path id="DejaVuSans-34" d="M 2419 4116 
L 825 1625 
L 2419 1625 
L 2419 4116 
z
M 2253 4666 
L 3047 4666 
L 3047 1625 
L 3713 1625 
L 3713 1100 
L 3047 1100 
L 3047 0 
L 2419 0 
L 2419 1100 
L 313 1100 
L 313 1709 
L 2253 4666 
z
" transform="scale(0.015625)"/>
       </defs>
       <use xlink:href="#DejaVuSans-34"/>
       <use xlink:href="#DejaVuSans-30" x="63.623047"/>
       <use xlink:href="#DejaVuSans-30" x="127.246094"/>
      </g>
     </g>
    </g>
    <g id="ytick_3">
     <g id="line2d_10">
      <g>
       <use xlink:href="#m763a871984" x="108" y="136.611988" style="stroke: #000000; stroke-width: 0.8"/>
      </g>
     </g>
     <g id="text_11">
      <!-- 600 -->
      <g transform="translate(81.9125 140.411207) scale(0.1 -0.1)">
       <defs>
        <path id="DejaVuSans-36" d="M 2113 2584 
Q 1688 2584 1439 2293 
Q 1191 2003 1191 1497 
Q 1191 994 1439 701 
Q 1688 409 2113 409 
Q 2538 409 2786 701 
Q 3034 994 3034 1497 
Q 3034 2003 2786 2293 
Q 2538 2584 2113 2584 
z
M 3366 4563 
L 3366 3988 
Q 3128 4100 2886 4159 
Q 2644 4219 2406 4219 
Q 1781 4219 1451 3797 
Q 1122 3375 1075 2522 
Q 1259 2794 1537 2939 
Q 1816 3084 2150 3084 
Q 2853 3084 3261 2657 
Q 3669 2231 3669 1497 
Q 3669 778 3244 343 
Q 2819 -91 2113 -91 
Q 1303 -91 875 529 
Q 447 1150 447 2328 
Q 447 3434 972 4092 
Q 1497 4750 2381 4750 
Q 2619 4750 2861 4703 
Q 3103 4656 3366 4563 
z
" transform="scale(0.015625)"/>
       </defs>
       <use xlink:href="#DejaVuSans-36"/>
       <use xlink:href="#DejaVuSans-30" x="63.623047"/>
       <use xlink:href="#DejaVuSans-30" x="127.246094"/>
      </g>
     </g>
    </g>
    <g id="ytick_4">
     <g id="line2d_11">
      <g>
       <use xlink:href="#m763a871984" x="108" y="109.818125" style="stroke: #000000; stroke-width: 0.8"/>
      </g>
     </g>
     <g id="text_12">
      <!-- 800 -->
      <g transform="translate(81.9125 113.617344) scale(0.1 -0.1)">
       <defs>
        <path id="DejaVuSans-38" d="M 2034 2216 
Q 1584 2216 1326 1975 
Q 1069 1734 1069 1313 
Q 1069 891 1326 650 
Q 1584 409 2034 409 
Q 2484 409 2743 651 
Q 3003 894 3003 1313 
Q 3003 1734 2745 1975 
Q 2488 2216 2034 2216 
z
M 1403 2484 
Q 997 2584 770 2862 
Q 544 3141 544 3541 
Q 544 4100 942 4425 
Q 1341 4750 2034 4750 
Q 2731 4750 3128 4425 
Q 3525 4100 3525 3541 
Q 3525 3141 3298 2862 
Q 3072 2584 2669 2484 
Q 3125 2378 3379 2068 
Q 3634 1759 3634 1313 
Q 3634 634 3220 271 
Q 2806 -91 2034 -91 
Q 1263 -91 848 271 
Q 434 634 434 1313 
Q 434 1759 690 2068 
Q 947 2378 1403 2484 
z
M 1172 3481 
Q 1172 3119 1398 2916 
Q 1625 2713 2034 2713 
Q 2441 2713 2670 2916 
Q 2900 3119 2900 3481 
Q 2900 3844 2670 4047 
Q 2441 4250 2034 4250 
Q 1625 4250 1398 4047 
Q 1172 3844 1172 3481 
z
" transform="scale(0.015625)"/>
       </defs>
       <use xlink:href="#DejaVuSans-38"/>
       <use xlink:href="#DejaVuSans-30" x="63.623047"/>
       <use xlink:href="#DejaVuSans-30" x="127.246094"/>
      </g>
     </g>
    </g>
    <g id="ytick_5">
     <g id="line2d_12">
      <g>
       <use xlink:href="#m763a871984" x="108" y="83.024263" style="stroke: #000000; stroke-width: 0.8"/>
      </g>
     </g>
     <g id="text_13">
      <!-- 1000 -->
      <g transform="translate(75.55 86.823481) scale(0.1 -0.1)">
       <use xlink:href="#DejaVuSans-31"/>
       <use xlink:href="#DejaVuSans-30" x="63.623047"/>
       <use xlink:href="#DejaVuSans-30" x="127.246094"/>
       <use xlink:href="#DejaVuSans-30" x="190.869141"/>
      </g>
     </g>
    </g>
    <g id="ytick_6">
     <g id="line2d_13">
      <g>
       <use xlink:href="#m763a871984" x="108" y="56.2304" style="stroke: #000000; stroke-width: 0.8"/>
      </g>
     </g>
     <g id="text_14">
      <!-- 1200 -->
      <g transform="translate(75.55 60.029619) scale(0.1 -0.1)">
       <use xlink:href="#DejaVuSans-31"/>
       <use xlink:href="#DejaVuSans-32" x="63.623047"/>
       <use xlink:href="#DejaVuSans-30" x="127.246094"/>
       <use xlink:href="#DejaVuSans-30" x="190.869141"/>
      </g>
     </g>
    </g>
    <g id="text_15">
     <!-- Position -->
     <g transform="translate(69.470312 146.904063) rotate(-90) scale(0.1 -0.1)">
      <defs>
       <path id="DejaVuSans-50" d="M 1259 4147 
L 1259 2394 
L 2053 2394 
Q 2494 2394 2734 2622 
Q 2975 2850 2975 3272 
Q 2975 3691 2734 3919 
Q 2494 4147 2053 4147 
L 1259 4147 
z
M 628 4666 
L 2053 4666 
Q 2838 4666 3239 4311 
Q 3641 3956 3641 3272 
Q 3641 2581 3239 2228 
Q 2838 1875 2053 1875 
L 1259 1875 
L 1259 0 
L 628 0 
L 628 4666 
z
" transform="scale(0.015625)"/>
       <path id="DejaVuSans-6f" d="M 1959 3097 
Q 1497 3097 1228 2736 
Q 959 2375 959 1747 
Q 959 1119 1226 758 
Q 1494 397 1959 397 
Q 2419 397 2687 759 
Q 2956 1122 2956 1747 
Q 2956 2369 2687 2733 
Q 2419 3097 1959 3097 
z
M 1959 3584 
Q 2709 3584 3137 3096 
Q 3566 2609 3566 1747 
Q 3566 888 3137 398 
Q 2709 -91 1959 -91 
Q 1206 -91 779 398 
Q 353 888 353 1747 
Q 353 2609 779 3096 
Q 1206 3584 1959 3584 
z
" transform="scale(0.015625)"/>
       <path id="DejaVuSans-74" d="M 1172 4494 
L 1172 3500 
L 2356 3500 
L 2356 3053 
L 1172 3053 
L 1172 1153 
Q 1172 725 1289 603 
Q 1406 481 1766 481 
L 2356 481 
L 2356 0 
L 1766 0 
Q 1100 0 847 248 
Q 594 497 594 1153 
L 594 3053 
L 172 3053 
L 172 3500 
L 594 3500 
L 594 4494 
L 1172 4494 
z
" transform="scale(0.015625)"/>
       <path id="DejaVuSans-6e" d="M 3513 2113 
L 3513 0 
L 2938 0 
L 2938 2094 
Q 2938 2591 2744 2837 
Q 2550 3084 2163 3084 
Q 1697 3084 1428 2787 
Q 1159 2491 1159 1978 
L 1159 0 
L 581 0 
L 581 3500 
L 1159 3500 
L 1159 2956 
Q 1366 3272 1645 3428 
Q 1925 3584 2291 3584 
Q 2894 3584 3203 3211 
Q 3513 2838 3513 2113 
z
" transform="scale(0.015625)"/>
      </defs>
      <use xlink:href="#DejaVuSans-50"/>
      <use xlink:href="#DejaVuSans-6f" x="56.677734"/>
      <use xlink:href="#DejaVuSans-73" x="117.859375"/>
      <use xlink:href="#DejaVuSans-69" x="169.958984"/>
      <use xlink:href="#DejaVuSans-74" x="197.742188"/>
      <use xlink:href="#DejaVuSans-69" x="236.951172"/>
      <use xlink:href="#DejaVuSans-6f" x="264.734375"/>
      <use xlink:href="#DejaVuSans-6e" x="325.916016"/>
     </g>
    </g>
   </g>
   <g id="line2d_14">
    <path d="M 138.436364 189.180788 
L 145.951515 189.224675 
L 153.466667 189.849693 
L 160.981818 190.177303 
L 168.49697 190.51907 
L 176.012121 190.92098 
L 183.527273 191.085787 
L 191.042424 191.363017 
L 198.557576 191.504106 
L 206.072727 191.842675 
L 213.587879 192.033576 
L 221.10303 192.110833 
L 228.618182 191.810488 
L 236.133333 191.569799 
L 243.648485 191.540665 
L 251.163636 191.615215 
L 258.678788 191.624228 
L 266.193939 191.637951 
L 273.709091 191.646898 
L 281.224242 191.649641 
L 288.739394 191.550904 
L 296.254545 191.557855 
L 303.769697 191.810658 
L 311.284848 191.963149 
L 318.8 192.003077 
L 326.315152 192.089386 
L 333.830303 192.104166 
L 341.345455 192.140853 
L 348.860606 192.193845 
L 356.375758 192.256198 
L 363.890909 192.370888 
L 371.406061 192.407829 
L 378.921212 192.408321 
L 386.436364 192.494933 
L 393.951515 192.62124 
L 401.466667 192.710471 
L 408.981818 192.729923 
L 416.49697 192.672373 
L 424.012121 192.687692 
L 431.527273 192.451001 
L 439.042424 192.357795 
L 446.557576 192.489112 
L 454.072727 192.515335 
L 461.587879 192.527465 
L 469.10303 192.675146 
L 476.618182 192.92408 
L 484.133333 193.055171 
L 491.648485 192.977567 
L 499.163636 192.28357 
L 506.678788 190.49059 
L 514.193939 186.676833 
L 521.709091 181.374853 
L 529.224242 175.745211 
L 536.739394 170.222809 
L 544.254545 165.02744 
L 551.769697 159.846746 
L 559.284848 154.519669 
L 566.8 149.060098 
L 574.315152 143.484215 
L 581.830303 137.761487 
L 589.345455 132.277912 
L 596.860606 126.66108 
L 604.375758 121.075854 
L 611.890909 115.748601 
L 619.406061 110.424757 
L 626.921212 106.245425 
L 634.436364 100.947976 
L 641.951515 96.751164 
L 649.466667 92.730811 
L 656.981818 89.196278 
L 664.49697 85.894277 
L 672.012121 82.659519 
L 679.527273 79.48841 
L 687.042424 76.501259 
L 694.557576 73.566999 
L 702.072727 70.583012 
L 709.587879 67.760524 
L 717.10303 64.80787 
L 724.618182 62.376466 
L 732.133333 60.936573 
L 739.648485 59.654922 
L 747.163636 58.712727 
" clip-path="url(#pa6865d32f4)" style="fill: none; stroke: #1f77b4; stroke-width: 1.5; stroke-linecap: square"/>
   </g>
   <g id="line2d_15">
    <path d="M 138.436364 141.759817 
L 145.951515 141.476346 
L 153.466667 142.011379 
L 160.981818 141.981502 
L 168.49697 141.74635 
L 176.012121 141.478581 
L 183.527273 141.16042 
L 191.042424 140.932565 
L 198.557576 140.758525 
L 206.072727 140.6656 
L 213.587879 140.418907 
L 221.10303 140.154999 
L 228.618182 139.704477 
L 236.133333 139.569087 
L 243.648485 139.482777 
L 251.163636 139.494892 
L 258.678788 139.434633 
L 266.193939 139.469993 
L 273.709091 139.490918 
L 281.224242 139.44901 
L 288.739394 139.42649 
L 296.254545 139.273555 
L 303.769697 139.166706 
L 311.284848 139.186117 
L 318.8 139.211537 
L 326.315152 139.229959 
L 333.830303 139.238668 
L 341.345455 139.240004 
L 348.860606 139.190038 
L 356.375758 139.168113 
L 363.890909 139.067349 
L 371.406061 139.126799 
L 378.921212 139.161274 
L 386.436364 138.986027 
L 393.951515 138.91446 
L 401.466667 138.994693 
L 408.981818 139.040462 
L 416.49697 139.059334 
L 424.012121 139.061958 
L 431.527273 139.057532 
L 439.042424 139.051957 
L 446.557576 139.047953 
L 454.072727 139.141129 
L 461.587879 139.178035 
L 469.10303 139.13713 
L 476.618182 139.065549 
L 484.133333 139.03667 
L 491.648485 138.794263 
L 499.163636 138.849122 
L 506.678788 139.847135 
L 514.193939 144.146135 
L 521.709091 152.874695 
L 529.224242 163.650293 
L 536.739394 173.764747 
L 544.254545 182.039154 
L 551.769697 188.226322 
L 559.284848 192.536785 
L 566.8 195.064605 
L 574.315152 196.167273 
L 581.830303 195.66991 
L 589.345455 193.416296 
L 596.860606 189.46577 
L 604.375758 183.83637 
L 611.890909 176.429648 
L 619.406061 167.578383 
L 626.921212 157.130851 
L 634.436364 145.285848 
L 641.951515 138.962761 
L 649.466667 144.558897 
L 656.981818 153.495539 
L 664.49697 161.033212 
L 672.012121 166.045837 
L 679.527273 168.192907 
L 687.042424 168.193336 
L 694.557576 166.618457 
L 702.072727 163.704571 
L 709.587879 159.423956 
L 717.10303 153.746153 
L 724.618182 146.793357 
L 732.133333 141.569607 
L 739.648485 145.251857 
L 747.163636 151.235249 
" clip-path="url(#pa6865d32f4)" style="fill: none; stroke: #ff7f0e; stroke-width: 1.5; stroke-linecap: square"/>
   </g>
   <g id="line2d_16">
    <path d="M 138.436364 189.180788 
L 145.951515 189.224675 
L 153.466667 189.849693 
L 160.981818 190.177303 
L 168.49697 190.51907 
L 176.012121 190.92098 
L 183.527273 191.085787 
L 191.042424 191.363017 
L 198.557576 191.504106 
L 206.072727 191.842675 
L 213.587879 192.033576 
L 221.10303 192.110833 
L 228.618182 191.810488 
L 236.133333 191.569799 
L 243.648485 191.540665 
L 251.163636 191.615215 
L 258.678788 191.624228 
L 266.193939 191.637951 
L 273.709091 191.646898 
L 281.224242 191.649641 
L 288.739394 191.550904 
L 296.254545 191.557855 
L 303.769697 191.810658 
L 311.284848 191.963149 
L 318.8 192.003077 
L 326.315152 192.089386 
L 333.830303 192.104166 
L 341.345455 192.140853 
L 348.860606 192.193845 
L 356.375758 192.256198 
L 363.890909 192.370888 
L 371.406061 192.407829 
L 378.921212 192.408321 
L 386.436364 192.494933 
L 393.951515 192.62124 
L 401.466667 192.710471 
L 408.981818 192.729923 
L 416.49697 192.672373 
L 424.012121 192.687692 
L 431.527273 192.451001 
L 439.042424 192.357795 
L 446.557576 192.489112 
L 454.072727 192.515335 
L 461.587879 192.527465 
L 469.10303 192.675146 
L 476.618182 192.92408 
L 484.133333 193.055171 
L 491.648485 192.977567 
L 499.163636 192.28357 
L 506.678788 190.49059 
L 514.193939 186.676833 
L 521.709091 181.374853 
L 529.224242 175.745211 
L 536.739394 170.222809 
L 544.254545 165.02744 
L 551.769697 159.846746 
L 559.284848 154.519669 
L 566.8 149.060098 
L 574.315152 143.484215 
L 581.830303 137.761487 
L 589.345455 132.277912 
L 596.860606 126.66108 
L 604.375758 121.075854 
L 611.890909 115.748601 
L 619.406061 110.424757 
L 626.921212 106.245425 
L 634.436364 100.947976 
L 641.951515 96.751164 
L 649.466667 92.730811 
L 656.981818 89.196278 
L 664.49697 85.894277 
L 672.012121 82.659519 
L 679.527273 79.48841 
L 687.042424 76.501259 
L 694.557576 73.566999 
L 702.072727 70.583012 
L 709.587879 67.760524 
L 717.10303 64.80787 
L 724.618182 62.376466 
L 732.133333 60.936573 
L 739.648485 59.654922 
L 747.163636 58.712727 
" clip-path="url(#pa6865d32f4)" style="fill: none; stroke-dasharray: 5.55,2.4; stroke-dashoffset: 0; stroke: #2ca02c; stroke-width: 1.5"/>
   </g>
   <g id="line2d_17">
    <path d="M 138.436364 141.759817 
L 145.951515 141.476346 
L 153.466667 142.011379 
L 160.981818 141.981502 
L 168.49697 141.74635 
L 176.012121 141.478581 
L 183.527273 141.16042 
L 191.042424 140.932565 
L 198.557576 140.758525 
L 206.072727 140.6656 
L 213.587879 140.418907 
L 221.10303 140.154999 
L 228.618182 139.704477 
L 236.133333 139.569087 
L 243.648485 139.482777 
L 251.163636 139.494892 
L 258.678788 139.434633 
L 266.193939 139.469993 
L 273.709091 139.490918 
L 281.224242 139.44901 
L 288.739394 139.42649 
L 296.254545 139.273555 
L 303.769697 139.166706 
L 311.284848 139.186117 
L 318.8 139.211537 
L 326.315152 139.229959 
L 333.830303 139.238668 
L 341.345455 139.240004 
L 348.860606 139.190038 
L 356.375758 139.168113 
L 363.890909 139.067349 
L 371.406061 139.126799 
L 378.921212 139.161274 
L 386.436364 138.986027 
L 393.951515 138.91446 
L 401.466667 138.994693 
L 408.981818 139.040462 
L 416.49697 139.059334 
L 424.012121 139.061958 
L 431.527273 139.057532 
L 439.042424 139.051957 
L 446.557576 139.047953 
L 454.072727 139.141129 
L 461.587879 139.178035 
L 469.10303 139.13713 
L 476.618182 139.065549 
L 484.133333 139.03667 
L 491.648485 138.794263 
L 499.163636 138.849122 
L 506.678788 139.847135 
L 514.193939 144.146135 
L 521.709091 152.874695 
L 529.224242 163.650293 
L 536.739394 173.764747 
L 544.254545 182.039154 
L 551.769697 188.226322 
L 559.284848 192.536785 
L 566.8 195.064605 
L 574.315152 196.167273 
L 581.830303 195.66991 
L 589.345455 193.416296 
L 596.860606 189.46577 
L 604.375758 183.83637 
L 611.890909 176.429648 
L 619.406061 167.578383 
L 626.921212 157.130851 
L 634.436364 145.285848 
L 641.951515 138.962761 
L 649.466667 144.558897 
L 656.981818 153.495539 
L 664.49697 161.033212 
L 672.012121 166.045837 
L 679.527273 168.192907 
L 687.042424 168.193336 
L 694.557576 166.618457 
L 702.072727 163.704571 
L 709.587879 159.423956 
L 717.10303 153.746153 
L 724.618182 146.793357 
L 732.133333 141.569607 
L 739.648485 145.251857 
L 747.163636 151.235249 
" clip-path="url(#pa6865d32f4)" style="fill: none; stroke-dasharray: 5.55,2.4; stroke-dashoffset: 0; stroke: #d62728; stroke-width: 1.5"/>
   </g>
   <g id="patch_3">
    <path d="M 108 203.04 
L 108 51.84 
" style="fill: none; stroke: #000000; stroke-width: 0.8; stroke-linejoin: miter; stroke-linecap: square"/>
   </g>
   <g id="patch_4">
    <path d="M 777.6 203.04 
L 777.6 51.84 
" style="fill: none; stroke: #000000; stroke-width: 0.8; stroke-linejoin: miter; stroke-linecap: square"/>
   </g>
   <g id="patch_5">
    <path d="M 108 203.04 
L 777.6 203.04 
" style="fill: none; stroke: #000000; stroke-width: 0.8; stroke-linejoin: miter; stroke-linecap: square"/>
   </g>
   <g id="patch_6">
    <path d="M 108 51.84 
L 777.6 51.84 
" style="fill: none; stroke: #000000; stroke-width: 0.8; stroke-linejoin: miter; stroke-linecap: square"/>
   </g>
   <g id="legend_1">
    <g id="patch_7">
     <path d="M 115 118.5525 
L 200.509375 118.5525 
Q 202.509375 118.5525 202.509375 116.5525 
L 202.509375 58.84 
Q 202.509375 56.84 200.509375 56.84 
L 115 56.84 
Q 113 56.84 113 58.84 
L 113 116.5525 
Q 113 118.5525 115 118.5525 
z
" style="fill: #ffffff; opacity: 0.8; stroke: #cccccc; stroke-linejoin: miter"/>
    </g>
    <g id="line2d_18">
     <path d="M 117 64.938438 
L 127 64.938438 
L 137 64.938438 
" style="fill: none; stroke: #1f77b4; stroke-width: 1.5; stroke-linecap: square"/>
    </g>
    <g id="text_16">
     <!-- EstX -->
     <g transform="translate(145 68.438438) scale(0.1 -0.1)">
      <defs>
       <path id="DejaVuSans-45" d="M 628 4666 
L 3578 4666 
L 3578 4134 
L 1259 4134 
L 1259 2753 
L 3481 2753 
L 3481 2222 
L 1259 2222 
L 1259 531 
L 3634 531 
L 3634 0 
L 628 0 
L 628 4666 
z
" transform="scale(0.015625)"/>
       <path id="DejaVuSans-58" d="M 403 4666 
L 1081 4666 
L 2241 2931 
L 3406 4666 
L 4084 4666 
L 2584 2425 
L 4184 0 
L 3506 0 
L 2194 1984 
L 872 0 
L 191 0 
L 1856 2491 
L 403 4666 
z
" transform="scale(0.015625)"/>
      </defs>
      <use xlink:href="#DejaVuSans-45"/>
      <use xlink:href="#DejaVuSans-73" x="63.183594"/>
      <use xlink:href="#DejaVuSans-74" x="115.283203"/>
      <use xlink:href="#DejaVuSans-58" x="154.492188"/>
     </g>
    </g>
    <g id="line2d_19">
     <path d="M 117 79.616563 
L 127 79.616563 
L 137 79.616563 
" style="fill: none; stroke: #ff7f0e; stroke-width: 1.5; stroke-linecap: square"/>
    </g>
    <g id="text_17">
     <!-- EstY -->
     <g transform="translate(145 83.116563) scale(0.1 -0.1)">
      <defs>
       <path id="DejaVuSans-59" d="M -13 4666 
L 666 4666 
L 1959 2747 
L 3244 4666 
L 3922 4666 
L 2272 2222 
L 2272 0 
L 1638 0 
L 1638 2222 
L -13 4666 
z
" transform="scale(0.015625)"/>
      </defs>
      <use xlink:href="#DejaVuSans-45"/>
      <use xlink:href="#DejaVuSans-73" x="63.183594"/>
      <use xlink:href="#DejaVuSans-74" x="115.283203"/>
      <use xlink:href="#DejaVuSans-59" x="154.492188"/>
     </g>
    </g>
    <g id="line2d_20">
     <path d="M 117 94.294688 
L 127 94.294688 
L 137 94.294688 
" style="fill: none; stroke-dasharray: 5.55,2.4; stroke-dashoffset: 0; stroke: #2ca02c; stroke-width: 1.5"/>
    </g>
    <g id="text_18">
     <!-- ExpectedX -->
     <g transform="translate(145 97.794688) scale(0.1 -0.1)">
      <defs>
       <path id="DejaVuSans-78" d="M 3513 3500 
L 2247 1797 
L 3578 0 
L 2900 0 
L 1881 1375 
L 863 0 
L 184 0 
L 1544 1831 
L 300 3500 
L 978 3500 
L 1906 2253 
L 2834 3500 
L 3513 3500 
z
" transform="scale(0.015625)"/>
       <path id="DejaVuSans-70" d="M 1159 525 
L 1159 -1331 
L 581 -1331 
L 581 3500 
L 1159 3500 
L 1159 2969 
Q 1341 3281 1617 3432 
Q 1894 3584 2278 3584 
Q 2916 3584 3314 3078 
Q 3713 2572 3713 1747 
Q 3713 922 3314 415 
Q 2916 -91 2278 -91 
Q 1894 -91 1617 61 
Q 1341 213 1159 525 
z
M 3116 1747 
Q 3116 2381 2855 2742 
Q 2594 3103 2138 3103 
Q 1681 3103 1420 2742 
Q 1159 2381 1159 1747 
Q 1159 1113 1420 752 
Q 1681 391 2138 391 
Q 2594 391 2855 752 
Q 3116 1113 3116 1747 
z
" transform="scale(0.015625)"/>
       <path id="DejaVuSans-63" d="M 3122 3366 
L 3122 2828 
Q 2878 2963 2633 3030 
Q 2388 3097 2138 3097 
Q 1578 3097 1268 2742 
Q 959 2388 959 1747 
Q 959 1106 1268 751 
Q 1578 397 2138 397 
Q 2388 397 2633 464 
Q 2878 531 3122 666 
L 3122 134 
Q 2881 22 2623 -34 
Q 2366 -91 2075 -91 
Q 1284 -91 818 406 
Q 353 903 353 1747 
Q 353 2603 823 3093 
Q 1294 3584 2113 3584 
Q 2378 3584 2631 3529 
Q 2884 3475 3122 3366 
z
" transform="scale(0.015625)"/>
       <path id="DejaVuSans-64" d="M 2906 2969 
L 2906 4863 
L 3481 4863 
L 3481 0 
L 2906 0 
L 2906 525 
Q 2725 213 2448 61 
Q 2172 -91 1784 -91 
Q 1150 -91 751 415 
Q 353 922 353 1747 
Q 353 2572 751 3078 
Q 1150 3584 1784 3584 
Q 2172 3584 2448 3432 
Q 2725 3281 2906 2969 
z
M 947 1747 
Q 947 1113 1208 752 
Q 1469 391 1925 391 
Q 2381 391 2643 752 
Q 2906 1113 2906 1747 
Q 2906 2381 2643 2742 
Q 2381 3103 1925 3103 
Q 1469 3103 1208 2742 
Q 947 2381 947 1747 
z
" transform="scale(0.015625)"/>
      </defs>
      <use xlink:href="#DejaVuSans-45"/>
      <use xlink:href="#DejaVuSans-78" x="63.183594"/>
      <use xlink:href="#DejaVuSans-70" x="122.363281"/>
      <use xlink:href="#DejaVuSans-65" x="185.839844"/>
      <use xlink:href="#DejaVuSans-63" x="247.363281"/>
      <use xlink:href="#DejaVuSans-74" x="302.34375"/>
      <use xlink:href="#DejaVuSans-65" x="341.552734"/>
      <use xlink:href="#DejaVuSans-64" x="403.076172"/>
      <use xlink:href="#DejaVuSans-58" x="466.552734"/>
     </g>
    </g>
    <g id="line2d_21">
     <path d="M 117 108.972813 
L 127 108.972813 
L 137 108.972813 
" style="fill: none; stroke-dasharray: 5.55,2.4; stroke-dashoffset: 0; stroke: #d62728; stroke-width: 1.5"/>
    </g>
    <g id="text_19">
     <!-- ExpectedY -->
     <g transform="translate(145 112.472813) scale(0.1 -0.1)">
      <use xlink:href="#DejaVuSans-45"/>
      <use xlink:href="#DejaVuSans-78" x="63.183594"/>
      <use xlink:href="#DejaVuSans-70" x="122.363281"/>
      <use xlink:href="#DejaVuSans-65" x="185.839844"/>
      <use xlink:href="#DejaVuSans-63" x="247.363281"/>
      <use xlink:href="#DejaVuSans-74" x="302.34375"/>
      <use xlink:href="#DejaVuSans-65" x="341.552734"/>
      <use xlink:href="#DejaVuSans-64" x="403.076172"/>
      <use xlink:href="#DejaVuSans-59" x="466.552734"/>
     </g>
    </g>
   </g>
  </g>
  <g id="axes_2">
   <g id="patch_8">
    <path d="M 108 384.48 
L 777.6 384.48 
L 777.6 233.28 
L 108 233.28 
z
" style="fill: #ffffff"/>
   </g>
   <g id="matplotlib.axis_3">
    <g id="xtick_8">
     <g id="line2d_22">
      <g>
       <use xlink:href="#mc366a27018" x="138.436364" y="384.48" style="stroke: #000000; stroke-width: 0.8"/>
      </g>
     </g>
     <g id="text_20">
      <!-- 0.0 -->
      <g transform="translate(130.484801 399.078438) scale(0.1 -0.1)">
       <use xlink:href="#DejaVuSans-30"/>
       <use xlink:href="#DejaVuSans-2e" x="63.623047"/>
       <use xlink:href="#DejaVuSans-30" x="95.410156"/>
      </g>
     </g>
    </g>
    <g id="xtick_9">
     <g id="line2d_23">
      <g>
       <use xlink:href="#mc366a27018" x="235.068943" y="384.48" style="stroke: #000000; stroke-width: 0.8"/>
      </g>
     </g>
     <g id="text_21">
      <!-- 0.5 -->
      <g transform="translate(227.117381 399.078438) scale(0.1 -0.1)">
       <use xlink:href="#DejaVuSans-30"/>
       <use xlink:href="#DejaVuSans-2e" x="63.623047"/>
       <use xlink:href="#DejaVuSans-35" x="95.410156"/>
      </g>
     </g>
    </g>
    <g id="xtick_10">
     <g id="line2d_24">
      <g>
       <use xlink:href="#mc366a27018" x="331.701523" y="384.48" style="stroke: #000000; stroke-width: 0.8"/>
      </g>
     </g>
     <g id="text_22">
      <!-- 1.0 -->
      <g transform="translate(323.749961 399.078438) scale(0.1 -0.1)">
       <use xlink:href="#DejaVuSans-31"/>
       <use xlink:href="#DejaVuSans-2e" x="63.623047"/>
       <use xlink:href="#DejaVuSans-30" x="95.410156"/>
      </g>
     </g>
    </g>
    <g id="xtick_11">
     <g id="line2d_25">
      <g>
       <use xlink:href="#mc366a27018" x="428.334103" y="384.48" style="stroke: #000000; stroke-width: 0.8"/>
      </g>
     </g>
     <g id="text_23">
      <!-- 1.5 -->
      <g transform="translate(420.38254 399.078438) scale(0.1 -0.1)">
       <use xlink:href="#DejaVuSans-31"/>
       <use xlink:href="#DejaVuSans-2e" x="63.623047"/>
       <use xlink:href="#DejaVuSans-35" x="95.410156"/>
      </g>
     </g>
    </g>
    <g id="xtick_12">
     <g id="line2d_26">
      <g>
       <use xlink:href="#mc366a27018" x="524.966683" y="384.48" style="stroke: #000000; stroke-width: 0.8"/>
      </g>
     </g>
     <g id="text_24">
      <!-- 2.0 -->
      <g transform="translate(517.01512 399.078438) scale(0.1 -0.1)">
       <use xlink:href="#DejaVuSans-32"/>
       <use xlink:href="#DejaVuSans-2e" x="63.623047"/>
       <use xlink:href="#DejaVuSans-30" x="95.410156"/>
      </g>
     </g>
    </g>
    <g id="xtick_13">
     <g id="line2d_27">
      <g>
       <use xlink:href="#mc366a27018" x="621.599262" y="384.48" style="stroke: #000000; stroke-width: 0.8"/>
      </g>
     </g>
     <g id="text_25">
      <!-- 2.5 -->
      <g transform="translate(613.6477 399.078438) scale(0.1 -0.1)">
       <use xlink:href="#DejaVuSans-32"/>
       <use xlink:href="#DejaVuSans-2e" x="63.623047"/>
       <use xlink:href="#DejaVuSans-35" x="95.410156"/>
      </g>
     </g>
    </g>
    <g id="xtick_14">
     <g id="line2d_28">
      <g>
       <use xlink:href="#mc366a27018" x="718.231842" y="384.48" style="stroke: #000000; stroke-width: 0.8"/>
      </g>
     </g>
     <g id="text_26">
      <!-- 3.0 -->
      <g transform="translate(710.280279 399.078438) scale(0.1 -0.1)">
       <use xlink:href="#DejaVuSans-33"/>
       <use xlink:href="#DejaVuSans-2e" x="63.623047"/>
       <use xlink:href="#DejaVuSans-30" x="95.410156"/>
      </g>
     </g>
    </g>
    <g id="text_27">
     <!-- Time (s) -->
     <g transform="translate(422.471094 412.756563) scale(0.1 -0.1)">
      <use xlink:href="#DejaVuSans-54"/>
      <use xlink:href="#DejaVuSans-69" x="57.958984"/>
      <use xlink:href="#DejaVuSans-6d" x="85.742188"/>
      <use xlink:href="#DejaVuSans-65" x="183.154297"/>
      <use xlink:href="#DejaVuSans-20" x="244.677734"/>
      <use xlink:href="#DejaVuSans-28" x="276.464844"/>
      <use xlink:href="#DejaVuSans-73" x="315.478516"/>
      <use xlink:href="#DejaVuSans-29" x="367.578125"/>
     </g>
    </g>
   </g>
   <g id="matplotlib.axis_4">
    <g id="ytick_7">
     <g id="line2d_29">
      <g>
       <use xlink:href="#m763a871984" x="108" y="380.602815" style="stroke: #000000; stroke-width: 0.8"/>
      </g>
     </g>
     <g id="text_28">
      <!-- −100 -->
      <g transform="translate(73.532813 384.402034) scale(0.1 -0.1)">
       <defs>
        <path id="DejaVuSans-2212" d="M 678 2272 
L 4684 2272 
L 4684 1741 
L 678 1741 
L 678 2272 
z
" transform="scale(0.015625)"/>
       </defs>
       <use xlink:href="#DejaVuSans-2212"/>
       <use xlink:href="#DejaVuSans-31" x="83.789062"/>
       <use xlink:href="#DejaVuSans-30" x="147.412109"/>
       <use xlink:href="#DejaVuSans-30" x="211.035156"/>
      </g>
     </g>
    </g>
    <g id="ytick_8">
     <g id="line2d_30">
      <g>
       <use xlink:href="#m763a871984" x="108" y="350.985537" style="stroke: #000000; stroke-width: 0.8"/>
      </g>
     </g>
     <g id="text_29">
      <!-- 0 -->
      <g transform="translate(94.6375 354.784756) scale(0.1 -0.1)">
       <use xlink:href="#DejaVuSans-30"/>
      </g>
     </g>
    </g>
    <g id="ytick_9">
     <g id="line2d_31">
      <g>
       <use xlink:href="#m763a871984" x="108" y="321.368258" style="stroke: #000000; stroke-width: 0.8"/>
      </g>
     </g>
     <g id="text_30">
      <!-- 100 -->
      <g transform="translate(81.9125 325.167477) scale(0.1 -0.1)">
       <use xlink:href="#DejaVuSans-31"/>
       <use xlink:href="#DejaVuSans-30" x="63.623047"/>
       <use xlink:href="#DejaVuSans-30" x="127.246094"/>
      </g>
     </g>
    </g>
    <g id="ytick_10">
     <g id="line2d_32">
      <g>
       <use xlink:href="#m763a871984" x="108" y="291.75098" style="stroke: #000000; stroke-width: 0.8"/>
      </g>
     </g>
     <g id="text_31">
      <!-- 200 -->
      <g transform="translate(81.9125 295.550198) scale(0.1 -0.1)">
       <use xlink:href="#DejaVuSans-32"/>
       <use xlink:href="#DejaVuSans-30" x="63.623047"/>
       <use xlink:href="#DejaVuSans-30" x="127.246094"/>
      </g>
     </g>
    </g>
    <g id="ytick_11">
     <g id="line2d_33">
      <g>
       <use xlink:href="#m763a871984" x="108" y="262.133701" style="stroke: #000000; stroke-width: 0.8"/>
      </g>
     </g>
     <g id="text_32">
      <!-- 300 -->
      <g transform="translate(81.9125 265.93292) scale(0.1 -0.1)">
       <use xlink:href="#DejaVuSans-33"/>
       <use xlink:href="#DejaVuSans-30" x="63.623047"/>
       <use xlink:href="#DejaVuSans-30" x="127.246094"/>
      </g>
     </g>
    </g>
    <g id="text_33">
     <!-- Velocity -->
     <g transform="translate(67.453125 328.495625) rotate(-90) scale(0.1 -0.1)">
      <defs>
       <path id="DejaVuSans-56" d="M 1831 0 
L 50 4666 
L 709 4666 
L 2188 738 
L 3669 4666 
L 4325 4666 
L 2547 0 
L 1831 0 
z
" transform="scale(0.015625)"/>
       <path id="DejaVuSans-6c" d="M 603 4863 
L 1178 4863 
L 1178 0 
L 603 0 
L 603 4863 
z
" transform="scale(0.015625)"/>
       <path id="DejaVuSans-79" d="M 2059 -325 
Q 1816 -950 1584 -1140 
Q 1353 -1331 966 -1331 
L 506 -1331 
L 506 -850 
L 844 -850 
Q 1081 -850 1212 -737 
Q 1344 -625 1503 -206 
L 1606 56 
L 191 3500 
L 800 3500 
L 1894 763 
L 2988 3500 
L 3597 3500 
L 2059 -325 
z
" transform="scale(0.015625)"/>
      </defs>
      <use xlink:href="#DejaVuSans-56"/>
      <use xlink:href="#DejaVuSans-65" x="60.658203"/>
      <use xlink:href="#DejaVuSans-6c" x="122.181641"/>
      <use xlink:href="#DejaVuSans-6f" x="149.964844"/>
      <use xlink:href="#DejaVuSans-63" x="211.146484"/>
      <use xlink:href="#DejaVuSans-69" x="266.126953"/>
      <use xlink:href="#DejaVuSans-74" x="293.910156"/>
      <use xlink:href="#DejaVuSans-79" x="333.119141"/>
     </g>
    </g>
   </g>
   <g id="line2d_34">
    <path d="M 138.436364 310.012316 
L 145.951515 357.75928 
L 153.466667 355.318636 
L 160.981818 353.382778 
L 168.49697 352.691472 
L 176.012121 352.428717 
L 183.527273 351.873904 
L 191.042424 351.714578 
L 198.557576 351.420732 
L 206.072727 351.56344 
L 213.587879 351.439711 
L 221.10303 351.210728 
L 228.618182 350.538922 
L 236.133333 350.294737 
L 243.648485 350.537624 
L 251.163636 350.875189 
L 258.678788 350.979089 
L 266.193939 351.036126 
L 273.709091 351.04933 
L 281.224242 351.036704 
L 288.739394 350.870879 
L 296.254545 350.935775 
L 303.769697 351.343157 
L 311.284848 351.410039 
L 318.8 351.253139 
L 326.315152 351.217971 
L 333.830303 351.08779 
L 341.345455 351.050221 
L 348.860606 351.061755 
L 356.375758 351.089068 
L 363.890909 351.185792 
L 371.406061 351.122489 
L 378.921212 351.029664 
L 386.436364 351.109216 
L 393.951515 351.216425 
L 401.466667 351.217175 
L 408.981818 351.10651 
L 416.49697 350.928295 
L 424.012121 350.945918 
L 431.527273 350.593302 
L 439.042424 350.628672 
L 446.557576 351.009243 
L 454.072727 351.070936 
L 461.587879 351.070788 
L 469.10303 351.260568 
L 476.618182 351.503401 
L 484.133333 351.438819 
L 491.648485 351.066675 
L 499.163636 349.937006 
L 506.678788 347.715558 
L 514.193939 343.609908 
L 521.709091 339.414152 
L 529.224242 337.094367 
L 536.739394 336.555699 
L 544.254545 337.268459 
L 551.769697 338.055312 
L 559.284848 338.478918 
L 566.8 338.613566 
L 574.315152 338.560321 
L 581.830303 338.33901 
L 589.345455 338.599138 
L 596.860606 338.56657 
L 604.375758 338.599978 
L 611.890909 339.006318 
L 619.406061 339.227365 
L 626.921212 341.024305 
L 634.436364 340.278981 
L 641.951515 341.391442 
L 649.466667 342.196744 
L 656.981818 343.245492 
L 664.49697 344.026735 
L 672.012121 344.392039 
L 679.527273 344.528887 
L 687.042424 344.747633 
L 694.557576 344.84501 
L 702.072727 344.741492 
L 709.587879 344.864984 
L 717.10303 344.69961 
L 724.618182 345.355167 
L 732.133333 347.165622 
L 739.648485 348.309371 
L 747.163636 349.273485 
" clip-path="url(#pb282af1f00)" style="fill: none; stroke: #1f77b4; stroke-width: 1.5; stroke-linecap: square"/>
   </g>
   <g id="line2d_35">
    <path d="M 138.436364 240.152727 
L 145.951515 368.246048 
L 153.466667 359.280206 
L 160.981818 354.706276 
L 168.49697 352.645668 
L 176.012121 351.604135 
L 183.527273 350.929346 
L 191.042424 350.664851 
L 198.557576 350.59616 
L 206.072727 350.689736 
L 213.587879 350.517382 
L 221.10303 350.402178 
L 228.618182 350.073022 
L 236.133333 350.388672 
L 243.648485 350.658721 
L 251.163636 350.949731 
L 258.678788 350.977928 
L 266.193939 351.107241 
L 273.709091 351.131488 
L 281.224242 351.026668 
L 288.739394 350.98326 
L 296.254545 350.759106 
L 303.769697 350.709633 
L 311.284848 350.886412 
L 318.8 351.000275 
L 326.315152 351.046857 
L 333.830303 351.047789 
L 341.345455 351.028143 
L 348.860606 350.934496 
L 356.375758 350.924352 
L 363.890909 350.804342 
L 371.406061 350.985126 
L 378.921212 351.052052 
L 386.436364 350.767717 
L 393.951515 350.767011 
L 401.466667 351.007175 
L 408.981818 351.090104 
L 416.49697 351.084294 
L 424.012121 351.045526 
L 431.527273 351.00714 
L 439.042424 350.982537 
L 446.557576 350.972482 
L 454.072727 351.114967 
L 461.587879 351.107084 
L 469.10303 350.978582 
L 476.618182 350.860449 
L 484.133333 350.867382 
L 491.648485 350.561128 
L 499.163636 350.853834 
L 506.678788 352.446973 
L 514.193939 358.235432 
L 521.709091 367.817576 
L 529.224242 375.480748 
L 536.739394 377.607273 
L 544.254545 374.860045 
L 551.769697 369.393016 
L 559.284848 363.263167 
L 566.8 357.406111 
L 574.315152 352.601721 
L 581.830303 348.327778 
L 589.345455 344.198729 
L 596.860606 340.271827 
L 604.375758 336.494611 
L 611.890909 332.646981 
L 619.406061 329.251924 
L 626.921212 325.863676 
L 634.436364 322.747378 
L 641.951515 330.139478 
L 649.466667 352.609932 
L 656.981818 369.425825 
L 664.49697 374.753142 
L 672.012121 371.745691 
L 679.527273 364.144422 
L 687.042424 355.932717 
L 694.557576 349.042568 
L 702.072727 343.780589 
L 709.587879 339.65003 
L 717.10303 336.186512 
L 724.618182 333.268368 
L 732.133333 335.112509 
L 739.648485 350.16903 
L 747.163636 361.897461 
" clip-path="url(#pb282af1f00)" style="fill: none; stroke: #ff7f0e; stroke-width: 1.5; stroke-linecap: square"/>
   </g>
   <g id="patch_9">
    <path d="M 108 384.48 
L 108 233.28 
" style="fill: none; stroke: #000000; stroke-width: 0.8; stroke-linejoin: miter; stroke-linecap: square"/>
   </g>
   <g id="patch_10">
    <path d="M 777.6 384.48 
L 777.6 233.28 
" style="fill: none; stroke: #000000; stroke-width: 0.8; stroke-linejoin: miter; stroke-linecap: square"/>
   </g>
   <g id="patch_11">
    <path d="M 108 384.48 
L 777.6 384.48 
" style="fill: none; stroke: #000000; stroke-width: 0.8; stroke-linejoin: miter; stroke-linecap: square"/>
   </g>
   <g id="patch_12">
    <path d="M 108 233.28 
L 777.6 233.28 
" style="fill: none; stroke: #000000; stroke-width: 0.8; stroke-linejoin: miter; stroke-linecap: square"/>
   </g>
   <g id="legend_2">
    <g id="patch_13">
     <path d="M 709.460938 270.63625 
L 770.6 270.63625 
Q 772.6 270.63625 772.6 268.63625 
L 772.6 240.28 
Q 772.6 238.28 770.6 238.28 
L 709.460938 238.28 
Q 707.460938 238.28 707.460938 240.28 
L 707.460938 268.63625 
Q 707.460938 270.63625 709.460938 270.63625 
z
" style="fill: #ffffff; opacity: 0.8; stroke: #cccccc; stroke-linejoin: miter"/>
    </g>
    <g id="line2d_36">
     <path d="M 711.460938 246.378438 
L 721.460938 246.378438 
L 731.460938 246.378438 
" style="fill: none; stroke: #1f77b4; stroke-width: 1.5; stroke-linecap: square"/>
    </g>
    <g id="text_34">
     <!-- EstVX -->
     <g transform="translate(739.460938 249.878438) scale(0.1 -0.1)">
      <use xlink:href="#DejaVuSans-45"/>
      <use xlink:href="#DejaVuSans-73" x="63.183594"/>
      <use xlink:href="#DejaVuSans-74" x="115.283203"/>
      <use xlink:href="#DejaVuSans-56" x="154.492188"/>
      <use xlink:href="#DejaVuSans-58" x="222.900391"/>
     </g>
    </g>
    <g id="line2d_37">
     <path d="M 711.460938 261.056563 
L 721.460938 261.056563 
L 731.460938 261.056563 
" style="fill: none; stroke: #ff7f0e; stroke-width: 1.5; stroke-linecap: square"/>
    </g>
    <g id="text_35">
     <!-- EstVY -->
     <g transform="translate(739.460938 264.556563) scale(0.1 -0.1)">
      <use xlink:href="#DejaVuSans-45"/>
      <use xlink:href="#DejaVuSans-73" x="63.183594"/>
      <use xlink:href="#DejaVuSans-74" x="115.283203"/>
      <use xlink:href="#DejaVuSans-56" x="154.492188"/>
      <use xlink:href="#DejaVuSans-59" x="222.900391"/>
     </g>
    </g>
   </g>
  </g>
 </g>
 <defs>
  <clipPath id="pa6865d32f4">
   <rect x="108" y="51.84" width="669.6" height="151.2"/>
  </clipPath>
  <clipPath id="pb282af1f00">
   <rect x="108" y="233.28" width="669.6" height="151.2"/>
  </clipPath>
 </defs>
</svg>
